<?xml version="1.0" standalone="no"?>
<!DOCTYPE svg PUBLIC "-//W3C//DTD SVG 20010904//EN"
 "http://www.w3.org/TR/2001/REC-SVG-20010904/DTD/svg10.dtd">
<svg version="1.0" xmlns="http://www.w3.org/2000/svg"
 width="665.000000pt" height="447.000000pt" viewBox="0 0 665.000000 447.000000"
 preserveAspectRatio="xMidYMid meet">

<g transform="translate(0.000000,447.000000) scale(0.100000,-0.100000)"
fill="#000000" stroke="none">
<path d="M5 4458 c-3 -7 -4 -1012 -3 -2233 l3 -2220 3323 -3 3322 -2 0 2235 0
2235 -3320 0 c-2647 0 -3322 -3 -3325 -12z m2154 -1824 c149 -147 271 -273
271 -282 0 -9 -14 -31 -32 -49 l-32 -33 39 -40 39 -40 -198 -198 c-108 -108
-238 -235 -287 -281 l-91 -84 -274 274 c-171 171 -274 281 -274 293 0 11 12
33 27 48 l27 28 -27 28 c-15 15 -27 37 -27 47 0 25 528 555 552 555 9 0 138
-120 287 -266z m780 -69 c49 -25 57 -90 16 -130 -23 -24 -30 -25 -150 -25
l-125 0 0 -56 c0 -47 3 -55 18 -52 11 2 18 14 20 36 2 20 9 32 18 32 10 0 14
-13 14 -50 l0 -50 -50 0 -50 0 0 85 0 85 131 0 c72 0 139 5 150 10 27 15 25
64 -3 84 -17 12 -49 16 -135 16 -106 0 -113 -1 -113 -20 0 -19 7 -20 115 -20
96 0 115 -3 115 -15 0 -13 -21 -15 -130 -15 l-130 0 0 50 0 50 130 0 c95 0
139 -4 159 -15z m384 4 c29 -16 37 -28 37 -61 l0 -28 -130 0 c-109 0 -130 2
-130 15 0 12 19 15 115 15 63 0 115 4 115 8 0 25 -30 32 -130 32 -117 -1 -142
-11 -142 -56 0 -44 25 -54 134 -54 103 0 149 -13 162 -45 12 -31 6 -73 -13
-96 -18 -23 -27 -24 -148 -27 -143 -4 -156 1 -169 66 l-6 32 136 0 c114 0 136
-2 136 -15 0 -12 -20 -15 -116 -15 -105 0 -115 -2 -112 -17 3 -16 18 -18 117
-21 124 -3 151 7 151 54 0 42 -34 54 -150 54 -116 1 -133 7 -151 58 -13 38 4
80 41 99 32 16 223 17 253 2z m244 -8 c10 -15 9 -22 -1 -30 -10 -9 -15 -8 -20
4 -6 16 -46 21 -46 7 0 -5 18 -34 40 -65 36 -50 40 -61 40 -116 0 -54 2 -61
20 -61 18 0 20 7 20 61 0 55 4 66 40 116 45 63 48 73 22 73 -10 0 -33 -20 -51
-47 -24 -33 -35 -43 -41 -33 -5 8 3 31 23 61 l32 49 62 0 63 0 -60 -84 c-60
-84 -60 -85 -60 -155 l0 -71 -50 0 -50 0 0 68 c0 68 -1 70 -60 155 l-60 87 63
0 c50 0 64 -4 74 -19z m593 -31 l0 -50 -98 0 c-108 0 -142 -13 -142 -55 0 -42
25 -55 101 -55 55 0 69 -3 69 -15 0 -12 -15 -15 -75 -15 -67 0 -79 3 -100 25
-25 24 -32 65 -19 100 12 31 60 45 149 45 77 0 86 2 83 18 -3 14 -16 17 -85
20 -98 3 -144 -12 -173 -60 -24 -40 -25 -79 -4 -123 23 -49 65 -65 173 -65
l91 0 0 35 c0 24 5 35 15 35 11 0 15 -12 15 -50 l0 -50 -111 0 c-82 0 -120 4
-145 16 -96 46 -112 177 -31 252 35 33 68 40 185 41 l102 1 0 -50z m257 43
c-14 -25 -123 -213 -139 -240 l-20 -33 24 0 c20 0 35 20 93 120 37 66 70 119
71 117 1 -1 28 -47 59 -102 32 -55 66 -115 77 -132 l20 -33 -59 0 -59 0 -29
55 c-22 40 -27 57 -19 65 9 9 19 -1 39 -39 18 -33 35 -51 47 -51 10 0 18 2 18
5 0 16 -93 164 -100 160 -4 -3 -32 -48 -61 -100 l-54 -95 -58 0 c-32 0 -57 4
-55 8 2 4 41 74 88 155 60 103 90 147 103 147 10 0 16 -3 14 -7z m569 -26 c31
-36 31 -77 -1 -111 -24 -26 -26 -26 -155 -26 l-130 0 0 -55 c0 -48 2 -55 20
-55 16 0 20 7 20 35 l0 35 64 0 c63 0 65 -1 86 -35 13 -20 30 -35 41 -35 23 0
24 9 3 38 -9 13 -14 26 -10 29 12 12 35 -8 59 -51 l26 -46 -59 0 c-56 0 -59 1
-79 35 -18 31 -25 35 -61 35 -39 0 -40 -1 -40 -35 l0 -35 -50 0 -50 0 0 85 0
85 137 0 c113 0 140 3 155 17 24 21 23 48 -2 73 -18 18 -33 20 -140 20 -113 0
-120 -1 -120 -20 0 -18 8 -20 117 -22 82 -2 118 -7 121 -15 3 -10 -28 -13
-132 -13 l-136 0 0 51 0 50 146 -3 c146 -3 146 -3 170 -31z m414 -17 l0 -50
-120 0 c-113 0 -120 -1 -120 -20 0 -19 7 -20 90 -20 73 0 90 -3 90 -15 0 -12
-18 -15 -105 -15 l-105 0 0 50 0 50 121 0 c109 0 120 2 117 18 -3 15 -19 17
-141 20 l-137 3 0 -126 0 -125 140 0 c133 0 140 1 140 20 0 19 -7 20 -120 20
-100 0 -120 3 -120 15 0 13 22 15 135 15 l135 0 0 -50 0 -50 -170 0 -170 0 0
155 0 155 170 0 170 0 0 -50z m-2682 -500 c4 -12 3 -13 -10 -2 -22 17 -50 4
-46 -22 2 -16 10 -21 30 -21 16 1 24 -3 19 -8 -5 -5 -19 -7 -32 -5 -18 2 -25
10 -27 32 -2 16 2 33 10 37 19 13 51 6 56 -11z m54 -48 c13 -2 18 6 21 35 l4
38 1 -43 c2 -42 1 -43 -25 -40 -25 3 -28 7 -30 43 l-1 40 6 -35 c4 -21 14 -36
24 -38z m86 -5 c12 -3 11 -5 -5 -6 -21 -1 -23 3 -21 42 l1 42 4 -37 c3 -24 10
-38 21 -41z m65 66 c-7 -2 -13 -20 -13 -39 0 -19 -4 -34 -10 -34 -5 0 -10 15
-10 34 0 19 -6 37 -12 39 -7 3 3 5 22 5 19 0 29 -2 23 -5z m37 -33 c0 -22 -4
-40 -10 -40 -5 0 -10 18 -10 40 0 22 5 40 10 40 6 0 10 -18 10 -40z m35 10 c4
-16 10 -30 15 -30 5 0 11 14 15 30 4 17 11 30 16 30 5 0 2 -17 -6 -37 -19 -45
-23 -49 -34 -37 -14 15 -31 74 -21 74 5 0 11 -13 15 -30z m121 -5 c7 -19 14
-36 14 -37 0 -2 -16 -3 -35 -3 -25 0 -34 4 -30 13 3 8 8 25 11 38 9 34 23 30
40 -11z m69 3 l20 -33 6 35 6 35 2 -42 c1 -50 -9 -54 -35 -15 l-18 27 -7 -30
c-6 -27 -7 -26 -8 13 -1 50 8 53 34 10z m115 18 c20 -26 8 -61 -22 -64 -27 -3
-28 -1 -28 37 0 33 3 41 19 41 10 0 24 -7 31 -14z m104 -8 c16 -26 -4 -53 -40
-53 -25 0 -30 4 -32 29 -6 46 47 63 72 24z m91 14 c6 -4 12 -22 13 -39 2 -29
-1 -33 -23 -33 -23 0 -25 4 -25 40 0 39 11 49 35 32z m55 -32 c0 -22 -4 -40
-10 -40 -5 0 -10 18 -10 40 0 22 5 40 10 40 6 0 10 -18 10 -40z m45 26 c-18
-13 -18 -13 1 -24 17 -10 17 -11 2 -12 -10 0 -18 -4 -18 -9 0 -5 8 -12 18 -14
13 -4 11 -5 -5 -6 -20 -1 -23 4 -23 39 0 34 3 40 22 40 21 0 21 -1 3 -14z m74
-13 l20 -28 1 28 c0 15 5 27 10 27 6 0 10 -18 10 -40 0 -48 -20 -54 -40 -12
l-14 27 -4 -27 c-5 -43 -22 -33 -22 12 0 47 11 50 39 13z m91 16 c-24 -10 -24
-11 -6 -25 17 -12 18 -14 3 -14 -25 0 -21 -18 6 -23 19 -4 18 -4 -5 -6 -26 -1
-28 2 -28 39 0 37 2 40 28 39 l27 0 -25 -10z m86 0 c4 -8 0 -9 -15 -4 -27 8
-28 -11 -1 -25 28 -15 25 -40 -4 -40 -14 0 -28 5 -31 10 -4 7 2 9 19 4 33 -8
34 9 1 24 -25 12 -31 23 -18 35 10 11 41 8 49 -4z m67 4 c-7 -2 -13 -20 -13
-39 0 -19 -4 -34 -10 -34 -5 0 -10 15 -10 34 0 19 -6 37 -12 39 -7 3 3 5 22 5
19 0 29 -2 23 -5z m72 -29 c8 -20 15 -37 15 -38 0 0 -16 -1 -35 -1 -39 0 -39
0 -24 44 14 40 25 39 44 -5z m81 -8 c1 -33 -1 -37 -11 -23 -16 22 -22 21 -28
0 -3 -10 -5 1 -6 25 -1 40 1 43 22 40 18 -2 22 -10 23 -42z m92 37 c-10 -2
-18 -11 -18 -19 0 -8 8 -15 18 -15 16 -1 16 -2 0 -6 -10 -2 -18 -8 -18 -13 0
-5 8 -11 18 -13 10 -3 6 -5 -10 -6 -26 -1 -28 2 -28 39 0 37 2 40 28 39 16 -1
20 -3 10 -6z m67 -20 l8 -28 10 28 c17 43 37 34 36 -15 -2 -30 -3 -35 -6 -15
-2 15 -8 27 -12 27 -4 0 -12 -12 -18 -27 l-10 -28 -13 30 -13 30 -7 -30 c-7
-28 -8 -27 -9 13 -1 49 22 59 34 15z m145 13 c6 -8 10 -25 8 -38 -2 -19 -9
-23 -38 -23 -29 0 -36 4 -38 23 -4 28 14 52 38 52 10 0 23 -7 30 -14z m98 -6
c4 -12 3 -13 -10 -2 -22 17 -50 4 -46 -22 2 -15 10 -21 30 -21 14 1 24 -3 22
-7 -10 -16 -53 -8 -64 12 -16 30 4 62 37 58 15 -2 29 -10 31 -18z m29 -42 c-2
-13 -4 -3 -4 22 0 25 2 35 4 23 2 -13 2 -33 0 -45z m98 22 c0 -29 -4 -36 -23
-38 -43 -6 -69 37 -40 66 7 7 24 12 38 10 21 -3 25 -8 25 -38z m59 18 c20 -28
20 -50 1 -24 -14 19 -15 19 -15 -7 0 -15 -4 -27 -10 -27 -5 0 -10 18 -10 40 0
45 11 51 34 18z m46 -18 c0 -30 -4 -40 -16 -40 -11 0 -14 5 -10 16 3 9 6 27 6
40 0 13 5 24 10 24 6 0 10 -18 10 -40z m75 -1 l12 -34 -37 0 -37 0 15 38 c18
45 31 44 47 -4z m63 -32 c12 -3 11 -5 -5 -6 -21 -1 -23 3 -21 42 l1 42 4 -37
c3 -24 10 -38 21 -41z"/>
<path d="M1607 2615 l-268 -263 268 -265 268 -266 265 264 265 265 -265 264
-265 264 -268 -263z m466 -467 l-203 -203 -195 195 c-107 107 -195 202 -195
210 0 9 88 103 195 210 l196 194 202 -202 202 -202 -202 -202z"/>
<path d="M1770 2445 l-95 -95 100 -100 100 -100 97 97 98 98 -97 97 c-54 54
-100 98 -103 98 -3 0 -48 -43 -100 -95z m132 -62 c34 -32 34 -40 6 -70 -28
-30 -38 -29 -73 7 l-29 30 29 30 c16 17 31 30 34 30 3 0 18 -12 33 -27z"/>
<path d="M3085 2020 c-8 -13 -1 -24 14 -19 6 3 7 10 2 18 -6 10 -10 10 -16 1z"/>
<path d="M3260 2010 c0 -20 5 -30 15 -30 21 0 30 27 15 45 -19 23 -30 18 -30
-15z"/>
<path d="M3352 2031 c-19 -12 -11 -45 12 -49 24 -5 37 17 25 40 -11 20 -18 22
-37 9z"/>
<path d="M3470 2025 c0 -9 5 -15 11 -13 6 2 11 8 11 13 0 5 -5 11 -11 13 -6 2
-11 -4 -11 -13z"/>
<path d="M3470 1990 c0 -5 7 -10 15 -10 8 0 15 5 15 10 0 6 -7 10 -15 10 -8 0
-15 -4 -15 -10z"/>
<path d="M3955 2020 c-8 -13 -1 -24 14 -19 6 3 7 10 2 18 -6 10 -10 10 -16 1z"/>
<path d="M4030 2025 c0 -9 5 -15 11 -13 6 2 11 8 11 13 0 5 -5 11 -11 13 -6 2
-11 -4 -11 -13z"/>
<path d="M4320 2025 c-17 -20 -5 -45 20 -45 11 0 23 7 26 15 6 15 -11 45 -26
45 -4 0 -13 -7 -20 -15z"/>
<path d="M4551 2030 c-19 -11 -9 -45 14 -45 13 0 21 8 23 21 3 23 -17 37 -37
24z"/>
<path d="M4746 2021 c-4 -7 -5 -15 -2 -18 9 -9 19 4 14 18 -4 11 -6 11 -12 0z"/>
</g>
</svg>
